<svg xmlns="http://www.w3.org/2000/svg" version="1.1" xmlns:xlink="http://www.w3.org/1999/xlink" xmlns:svgjs="http://svgjs.dev/svgjs" width="1500" height="1687" viewBox="0 0 1500 1687"><g transform="matrix(1,0,0,1,0.00011015625000254659,0)"><svg viewBox="0 0 320 360" data-background-color="#ffffff" preserveAspectRatio="xMidYMid meet" height="1687" width="1500" xmlns="http://www.w3.org/2000/svg" xmlns:xlink="http://www.w3.org/1999/xlink"><g id="tight-bounds" transform="matrix(1,0,0,1,0.000023499999997511622,0)"><svg viewBox="0 0 320 360" height="360" width="320"><g><svg></svg></g><g><svg viewBox="0 0 320 360" height="360" width="320"><g><path transform="translate(-74.99272,-51.79039) scale(4.65793,4.65793)" d="M20.6 59.9l0.8 1-0.4-1.3c-0.1-0.6-0.8 0.1-0.4 0.3M21.5 59.3c0.3 0.5 0.6 1 0.6 1.5 0 0.7 0.6 1 1.1 1.2-0.7-0.8-1.1-3-1.7-2.7M59.9 16.9c1.7 0 3.3-0.2 5.1 0.2 4.4 1.1 8.1 3.3 10.6 6.4l7 11.2c0.3 2.8 0.9 5.9 0.8 9.3 0.7 0 0.6-1 1.4-1.2-0.8 2-1.2 4.5-1.4 7.4-0.5-1.6 0-4 0.1-5.3-0.7 1.1-1.1 0.3-1.1-0.2 0.1-0.8-0.3-0.7-0.6-1-1.1-1-1.8-2.1-2.6-3.8 0.5-1.3 0.6-3.2-1-4.2-0.5-0.3-1.1-0.8-1.4-1.6-0.4-1.1-1.1-2.4-0.9-4.1 0.1-0.5-1.5 1.1-2.4 0.4-3.9-2.7-7.8-5.8-12.5-8.4-2.5 0-4.3-0.9-5.2-2-0.8-1-0.2-2.3 1-2.4 0.7 0 1.5-0.2 2.1 0.2 0.1-0.4 0.5-0.9 1-0.9M50 14.6l0.2 0.1c1 0.2 1.5 1.6 2.6 1.1 0 0.7 0.1 1.4-0.1 1.9-0.3 0.8-1.2 0.8-1.9 0.8-6.7-0.4-10.6 2.4-14.7 4.8-1.1 0.7-2.3 1.2-3.2 2.1-4.3 4-9 7.7-10.1 15.1l-0.9 8.2c-0.1 0.9-1.1 1.8-0.9 2.9l0.7 4.9c-0.7-0.7-1.1 0.2-0.9 0.6 0.1 0.3 0.5 1.3 1.1 0.4 0.8 1.5 1.6 4.4 2.7 5.7 3.4 4 7.8 7.6 11.4 11.2 0.9-0.2 1.6-0.2 1.8-0.8 0.3 0.6-0.3 1.2-0.8 1.3 1.6 1 3.4 1.9 5.8 2.1 3.1 0.2 6 0.7 8.7 1.4 1.4-0.4 2.8-0.6 4.3-0.7 0.5 0 0.8-0.8 1.4-1l0.1-1c0.6 0.9 0.5-0.3 0.1-0.9 0.7 0.6 0.9 1.1 1.2 1.5 0-0.3 0.8-1.4 0.8-0.1l0.2-1.3c0.3-0.2 0.4 1.1 0.7 0.2 0.3-0.9 0.9-0.2 1.5-0.5-0.2 0.4-0.1 1.2 0.6 0.7l0.8-0.7c0.5 1.2 1.3 0.7 1.7 0.5 4.4-2.8 8.8-6.1 13-9.4l-0.1 1.3 0.5-1.6c0.5 0.5 0.9 0.1 1.1-0.2 0.6-1 1.4-2 2.7-2.9-1.6 4.3-3.5 7.7-5.9 10.5l-1 1.2c0 0.7-0.2 1.6-1 1.7-0.4 0.1-1.2-0.2-1.8 0.4-0.3 0.4 0.7 1.2-0.1 0.6-0.7-0.5-1.4 0-2.2 0.2-0.6 0.2 0.4 0.8 0.6 1.2 0.2 0.4 0.4 0.8 0.3 1.3l-1.1-1.2c-1.3 0.7-2.1 2-3.2 3-0.5 0.4-0.3 1.1-0.3 1.7-0.7 0-1.5-0.2-1.9 0.2-0.3 0.4-0.2 1-0.2 1.6-1-0.1-1.1-1.6-2-1.3-0.9 0.2-1.9 0.3-2.7 0.8 0.6 1.2-1 0.5-0.8 0.7-1.5-0.9-2.8-1.6-4.4-1-3.4-1.1-7.6-0.6-10.7-0.2 0-0.5 0.1-1-0.1-1.1-0.2 0.5-0.8 0.3-0.7 0.3-1.9-1.3-3.8-2.1-5.8-3.2-1.8 0.2-3.5-0.7-4-1.2-1.4-1.3-3-0.6-4.3-0.9-2.8-0.7-3.8-3.6-4.1-5.6-0.2-1-1-1.4-1.3-1.3-1.3-4.2-3.3-8-4.9-11.9-0.4-1-0.3-2-0.3-3.1 0.5 0.2 1 0.1 0.9-0.6-0.5-3.3-1.7-5.8-3-8.2 0.7-3.4 0.8-7.4 2.4-10.4 1.4-2.7 4-4.1 5.8-6.4 0.6-0.8 0.6-1.9 1.2-2.6 2-2 4-4.1 6.2-5.9 1-0.8 2.2 0 3.7-0.3 0.5-1.8 2.5-3.4 4.4-2.9 0.8 0.2 2.4-1.9 2.9-2.1 0.8-0.3 0.4 0.8 0.4 1.5 1.9-1.5 4.5-2.3 6.9-3.2" fill="#0080ff" fill-rule="nonzero" stroke="none" stroke-width="1" stroke-linecap="butt" stroke-linejoin="miter" stroke-miterlimit="10" stroke-dasharray="" stroke-dashoffset="0" font-family="none" font-weight="none" font-size="none" text-anchor="none" style="mix-blend-mode: normal" data-fill-palette-color="tertiary"></path></g><g transform="matrix(1,0,0,1,64,130.93578821129327)"><svg viewBox="0 0 192 98.12842357741347" height="98.12842357741347" width="192"><g><svg viewBox="0 0 192 98.12842357741347" height="98.12842357741347" width="192"><g transform="matrix(1,0,0,1,0,72.67122867759562)"><svg viewBox="0 0 192 25.45719489981785" height="25.45719489981785" width="192"><g id="textblocktransform"><svg viewBox="0 0 192 25.45719489981785" height="25.45719489981785" width="192" id="textblock"><g><svg viewBox="0 0 192 25.45719489981785" height="25.45719489981785" width="192"><g transform="matrix(1,0,0,1,0,0)"><svg width="192" viewBox="2.93 -39.84 321.65 42.650000000000006" height="25.45719489981785" data-palette-color="#d50000"><path d="M19.04 1.27L18.46 1.27Q14.79 1.27 11.91-0.1 9.03-1.46 7.04-3.8 5.05-6.13 3.99-9.19 2.93-12.26 2.93-15.67L2.93-15.67Q2.93-19.51 4.02-22.74 5.1-25.98 7.06-28.48 9.01-30.98 11.71-32.7 14.4-34.42 17.63-35.25L17.63-35.25Q17.92-35.25 18.05-35.63 18.19-36.01 18.3-36.51 18.41-37.01 18.52-37.48 18.63-37.94 18.87-38.13L18.87-38.13Q27.47-36.96 30.37-35.47L30.37-35.47Q31.91-34.69 33.04-33.94 34.18-33.18 35.08-32.28 35.99-31.37 36.72-30.2 37.45-29.03 38.18-27.39L38.18-27.39Q38.94-25.68 39.31-23.14L39.31-23.14 39.33-22.85Q39.45-21.92 39.53-20.87 39.6-19.82 39.6-18.65L39.6-18.65Q39.6-14.43 38.22-11.02 36.84-7.62 34.4-5.03L34.4-5.03Q35.06-4.32 35.62-3.69 36.18-3.05 36.6-2.54 37.01-2.03 37.26-1.65 37.5-1.27 37.5-1.1L37.5-1.1Q37.5-0.83 37.07-0.45 36.65-0.07 36 0.37 35.35 0.81 34.59 1.25 33.84 1.68 33.18 2.03 32.52 2.37 32.06 2.59 31.59 2.81 31.54 2.81L31.54 2.81Q31.35 2.81 31.19 2.7 31.03 2.59 30.91 2.47L30.91 2.47 27.91-0.54Q25.83 0.32 23.66 0.79 21.48 1.27 19.04 1.27L19.04 1.27ZM13.82-16.65L13.82-16.65Q13.82-14.97 14.14-13.29 14.45-11.62 15.21-10.16L15.21-10.16Q15.23-10.13 15.23-10.11L15.23-10.11Q16.11-8.62 17.57-7.69 19.02-6.76 21.22-6.76L21.22-6.76 21.7-6.81 21.41-7.15Q20.85-7.79 20.48-8.28 20.12-8.76 20.12-9.01L20.12-9.01Q20.12-9.47 20.8-9.84L20.8-9.84 26.49-12.7Q26.64-12.77 26.73-12.77L26.73-12.77Q26.93-12.77 27.2-12.43 27.47-12.08 27.95-11.57L27.95-11.57Q28.64-13.18 28.93-15.12 29.22-17.07 29.22-18.82L29.22-18.82Q29.22-21.46 28.28-23.52 27.34-25.59 25.02-26.98L25.02-26.98Q24.24-27.44 23.35-27.64 22.46-27.83 21.39-27.83L21.39-27.83Q20.31-27.83 19.43-27.45 18.55-27.08 17.83-26.49 17.11-25.9 16.53-25.21 15.94-24.51 15.5-23.9L15.5-23.9Q15.04-23.27 14.72-22.34 14.4-21.41 14.2-20.41 13.99-19.41 13.9-18.41 13.82-17.41 13.82-16.65ZM70.26-27L67.97-3.03Q67.89-2.22 67.77-1.92 67.65-1.61 67.23-1.51L67.23-1.51Q65.16-0.93 62.9-0.33 60.64 0.27 58.52 1.25L58.52 1.25Q58.44 1.27 58.3 1.27L58.3 1.27Q58.1 1.27 58.07 1.17 58.03 1.07 58.03 0.95L58.03 0.95Q58.03 0.9 58.04 0.78 58.05 0.66 58.1 0.33 58.15 0 58.24-0.59 58.32-1.17 58.47-2.15L58.47-2.15Q55.73-0.37 53.62 0.45 51.51 1.27 49.88 1.27L49.88 1.27Q45.8 1.27 43.93-0.7 42.06-2.66 42.06-6.57L42.06-6.57Q42.06-7.28 42.09-8.02 42.11-8.76 42.23-9.55L42.23-9.55Q42.5-12.43 42.7-14.49 42.89-16.55 43.02-17.99 43.14-19.43 43.22-20.35 43.31-21.26 43.37-21.88 43.43-22.49 43.47-22.89 43.5-23.29 43.55-23.68L43.55-23.68Q43.65-24.46 43.74-24.78 43.82-25.1 44.28-25.2L44.28-25.2Q45.43-25.42 46.47-25.6 47.51-25.78 48.52-25.99 49.53-26.2 50.58-26.44 51.63-26.68 52.81-27.03L52.81-27.03Q52.85-27.03 52.9-27.04 52.95-27.05 53-27.05L53-27.05Q53.29-27.05 53.29-26.86L53.29-26.86 53.29-26.81Q53.2-25.98 53.12-25.24 53.05-24.51 52.98-23.74 52.9-22.97 52.82-22.09 52.73-21.22 52.61-20.06 52.49-18.9 52.32-17.38 52.15-15.87 51.9-13.87L51.9-13.87Q51.76-12.4 51.61-10.95 51.46-9.5 51.46-8.25L51.46-8.25Q51.46-7.57 51.56-6.99 51.66-6.42 51.91-6.02 52.17-5.62 52.59-5.4 53-5.18 53.66-5.18L53.66-5.18Q54.17-5.18 55.05-5.41 55.93-5.64 56.81-6.21 57.69-6.79 58.36-7.73 59.03-8.67 59.13-10.11L59.13-10.11Q59.3-12.52 59.43-14.15 59.57-15.77 59.67-16.88 59.76-17.99 59.84-18.75 59.91-19.51 59.97-20.2 60.03-20.9 60.08-21.69 60.13-22.49 60.18-23.68L60.18-23.68Q60.25-24.49 60.36-24.79 60.47-25.1 60.91-25.2L60.91-25.2Q63.13-25.63 65.45-26.09 67.77-26.54 69.99-27.25L69.99-27.25Q70.19-27.25 70.22-27.19 70.26-27.12 70.26-27L70.26-27ZM74.04-10.35L74.04-10.35Q74.36-13.7 74.68-16.97 75-20.24 75.24-23.68L75.24-23.68Q75.29-24.49 75.4-24.79 75.51-25.1 75.95-25.2L75.95-25.2Q78.02-25.61 80.29-26.06 82.56-26.51 84.69-27.22L84.69-27.22Q84.76-27.25 84.91-27.25L84.91-27.25Q85.18-27.25 85.18-27.05L85.18-27.05 82.98-3.27Q82.91-2.47 82.81-2.16 82.71-1.86 82.27-1.76L82.27-1.76Q80.2-1.12 78.07-0.34 75.95 0.44 73.58 1.25L73.58 1.25Q73.51 1.27 73.36 1.27L73.36 1.27Q73.09 1.27 73.09 1.03L73.09 1.03Q73.09 1 73.14 0.37 73.19-0.27 73.27-1.27 73.36-2.27 73.46-3.52 73.55-4.76 73.66-6.01 73.77-7.25 73.87-8.4 73.97-9.55 74.04-10.35ZM75.87-29.83L75.87-29.83Q75.95-30.88 75.98-31.45 76.02-32.01 76.04-32.29 76.07-32.57 76.07-32.64 76.07-32.71 76.08-32.75 76.09-32.79 76.11-32.9 76.12-33.01 76.14-33.36 76.17-33.72 76.22-34.4 76.26-35.08 76.36-36.28L76.36-36.28Q76.41-37.08 76.52-37.39 76.63-37.7 77.07-37.79L77.07-37.79Q79.15-38.21 81.42-38.66 83.69-39.11 85.81-39.82L85.81-39.82Q85.88-39.84 86.03-39.84L86.03-39.84Q86.1-39.7 86.23-39.65L86.23-39.65 86.3-39.6 85.76-32.91Q85.69-32.1 85.58-31.79 85.47-31.47 85.05-31.4L85.05-31.4Q82.98-31.01 80.85-30.54 78.73-30.08 76.36-29.61L76.36-29.61Q76.29-29.59 76.14-29.59L76.14-29.59Q75.87-29.59 75.87-29.83ZM87.86-11.91L87.86-11.91Q87.86-15.11 89.04-17.91 90.23-20.7 92.31-22.78 94.4-24.85 97.25-26.05 100.09-27.25 103.43-27.25L103.43-27.25Q105.71-27.25 107.32-26.88 108.93-26.51 109.95-26.06 110.98-25.61 111.45-25.23 111.93-24.85 111.93-24.83L111.93-24.83Q111.93-24.68 111.82-24.01 111.71-23.34 111.58-22.45 111.44-21.56 111.33-20.62 111.22-19.68 111.22-18.99L111.22-18.99Q111.22-18.87 111.15-18.73 111.08-18.58 110.76-18.58L110.76-18.58Q110.47-18.58 109.9-18.79 109.34-18.99 108.53-19.24 107.71-19.48 106.65-19.69 105.58-19.9 104.29-19.9L104.29-19.9Q102.68-19.9 101.38-19.32 100.09-18.75 99.16-17.74 98.23-16.72 97.73-15.33 97.23-13.94 97.23-12.33L97.23-12.33Q97.23-10.64 97.76-9.46 98.28-8.28 99.16-7.53 100.04-6.79 101.19-6.45 102.34-6.1 103.61-6.1L103.61-6.1Q105.07-6.1 106.56-6.51 108.05-6.91 109.37-7.64L109.37-7.64Q109.42-7.67 109.56-7.67L109.56-7.67Q109.68-7.67 109.75-7.54 109.81-7.42 109.81-7.08L109.81-7.08Q109.81-6.3 109.81-5.19 109.81-4.08 109.79-3.06 109.78-2.05 109.76-1.34 109.73-0.63 109.71-0.63L109.71-0.63Q108.83-0.05 107.81 0.32 106.78 0.68 105.69 0.9 104.61 1.12 103.51 1.2 102.41 1.27 101.38 1.27L101.38 1.27Q98.53 1.27 96.06 0.32 93.6-0.63 91.78-2.37 89.96-4.1 88.91-6.53 87.86-8.96 87.86-11.91ZM127.21-37.06L127.21-37.06 126.33-28.59Q126.16-26.88 125.98-25.12 125.8-23.36 125.62-21.75 125.45-20.14 125.31-18.77 125.16-17.41 125.06-16.53L125.06-16.53 126.75-18.38 129.48-21.58Q129.99-22.17 130.48-22.75 130.97-23.34 131.36-23.79 131.75-24.24 132-24.55 132.24-24.85 132.29-24.9L132.29-24.9 142.1-25.59Q142.18-25.61 142.26-25.61 142.35-25.61 142.42-25.61L142.42-25.61Q142.84-25.61 142.84-25.39L142.84-25.39Q142.84-25.22 142.32-24.63L142.32-24.63 134.68-16.09Q134.17-15.53 133.47-14.78 132.78-14.04 131.92-13.13L131.92-13.13 135.49-8.89 141.64-2.27Q141.71-2.15 141.86-2.09 142.01-2.03 142.14-1.98 142.28-1.93 142.39-1.87 142.49-1.81 142.49-1.68L142.49-1.68Q142.49-1.59 142.46-1.54 142.42-1.49 142.23-1.34L142.23-1.34Q142.01-1.17 141.46-0.85 140.91-0.54 140.18-0.15 139.44 0.24 138.61 0.65 137.78 1.05 137 1.38 136.22 1.71 135.56 1.92 134.9 2.12 134.54 2.12L134.54 2.12Q134.24 2.12 133.96 1.98 133.68 1.83 133.34 1.44L133.34 1.44Q132.88 0.9 132.18 0.04 131.48-0.83 130.68-1.87 129.87-2.91 129.03-4.02 128.19-5.13 127.42-6.14 126.65-7.15 126.03-7.97 125.41-8.79 125.06-9.28L125.06-9.28Q124.94-9.16 124.82-9.09 124.7-9.03 124.59-8.94 124.48-8.84 124.4-8.7 124.33-8.57 124.33-8.33L124.33-8.33Q124.33-8.23 124.28-7.78 124.23-7.32 124.17-6.7 124.11-6.08 124.04-5.37 123.96-4.66 123.9-4.04 123.84-3.42 123.79-2.97 123.74-2.51 123.74-2.42L123.74-2.42Q123.74-2.25 123.76-2.14 123.77-2.03 123.77-1.93L123.77-1.93Q123.77-1.66 123.59-1.53 123.4-1.39 122.7-1.2L122.7-1.2 116.3 0.88Q116.03 0.98 115.59 1.12 115.15 1.27 114.74 1.27L114.74 1.27Q114.39 1.27 114.14 1.1 113.88 0.93 113.88 0.46L113.88 0.46 116.96-34.72Q116.96-34.84 116.93-34.95 116.91-35.06 116.91-35.18L116.91-35.18Q116.91-35.4 117.09-35.58 117.28-35.77 117.93-35.94L117.93-35.94 124.79-37.57Q125.06-37.62 125.5-37.79 125.94-37.96 126.36-37.96L126.36-37.96Q126.67-37.96 126.96-37.82 127.24-37.67 127.24-37.26L127.24-37.26Q127.24-37.21 127.22-37.16 127.21-37.11 127.21-37.06ZM158.75-0.32L158.75-0.32Q158.26-0.44 158.09-0.7 157.92-0.95 157.92-1.27L157.92-1.27Q157.92-1.34 157.93-1.37 157.94-1.39 157.94-1.46L157.94-1.46Q158.14-4.1 158.37-6.99 158.6-9.89 158.87-12.88 159.14-15.87 159.41-18.85 159.68-21.83 159.95-24.63L159.95-24.63 159.92-24.63Q159.82-24.63 159.37-24.48 158.92-24.32 158.35-24.13 157.77-23.95 157.19-23.8 156.6-23.66 156.24-23.66L156.24-23.66Q155.92-23.66 155.78-23.9 155.65-24.15 155.65-24.44L155.65-24.44Q155.65-24.66 155.72-24.85L155.72-24.85Q156.38-26.76 157.09-28.42 157.8-30.08 158.51-31.84L158.51-31.84Q160.36-32.84 162.36-33.58 164.36-34.33 166.4-34.83 168.44-35.33 170.47-35.58 172.49-35.84 174.4-35.84L174.4-35.84Q177.06-35.84 179.42-35.28 181.77-34.72 183.52-33.58 185.26-32.45 186.28-30.73 187.29-29 187.29-26.68L187.29-26.68Q187.29-25.68 186.85-24.76 186.41-23.83 185.71-22.99 185.02-22.14 184.16-21.42 183.31-20.7 182.48-20.12L182.48-20.12Q183.65-19.26 184.59-18.57 185.53-17.87 186.19-17.11 186.85-16.36 187.19-15.42 187.53-14.48 187.53-13.13L187.53-13.13Q187.53-11.08 186.81-9.22 186.09-7.35 184.84-5.75 183.58-4.15 181.86-2.86 180.14-1.56 178.12-0.65 176.11 0.27 173.87 0.77 171.64 1.27 169.37 1.27L169.37 1.27Q168.54 1.27 167.15 1.1 165.76 0.93 164.23 0.7 162.7 0.46 161.23 0.18 159.75-0.1 158.75-0.32ZM170-27.1L170-27.1Q169.54-24.22 169.22-21.25 168.91-18.29 168.67-15.49 168.44-12.7 168.27-10.18 168.1-7.67 167.93-5.69L167.93-5.69Q168.91-5.69 170.04-5.8 171.18-5.91 172.3-6.18 173.42-6.45 174.48-6.87 175.55-7.3 176.35-7.93 177.16-8.57 177.65-9.44 178.13-10.3 178.13-11.43L178.13-11.43Q178.13-12.11 177.72-12.63 177.3-13.16 176.66-13.54 176.01-13.92 175.23-14.17 174.45-14.43 173.7-14.59 172.96-14.75 172.34-14.83 171.71-14.92 171.4-14.97L171.4-14.97Q171.05-15.01 170.96-15.21 170.86-15.41 170.86-15.7L170.86-15.7Q170.86-16.02 171.25-16.65 171.64-17.29 172.32-18.38L172.32-18.38 173.35-20.02Q174.01-20.26 174.78-20.63 175.55-21 176.21-21.47 176.86-21.95 177.3-22.55 177.74-23.14 177.74-23.85L177.74-23.85Q177.74-25.85 176.88-26.92 176.01-27.98 174.37-27.98L174.37-27.98Q172.52-27.98 170-27.1ZM211.65-27.44L210.14-19.87Q209.63-19.92 208.99-19.98 208.36-20.04 207.65-20.04L207.65-20.04Q206.57-20.04 205.46-19.86 204.35-19.68 203.4-19.14 202.45-18.6 201.76-17.66 201.08-16.72 200.89-15.23L200.89-15.23Q200.71-13.43 200.61-12.27 200.5-11.11 200.45-10.36 200.4-9.62 200.36-9.17 200.32-8.72 200.3-8.33L200.3-8.33Q200.3-8.23 200.26-7.79 200.23-7.35 200.15-6.76 200.08-6.18 200.02-5.49 199.96-4.81 199.88-4.22 199.81-3.64 199.77-3.2 199.74-2.76 199.74-2.66L199.74-2.66Q199.74-2.47 199.75-2.33 199.76-2.2 199.76-2.08L199.76-2.08Q199.76-1.88 199.58-1.75 199.4-1.61 198.76-1.44L198.76-1.44 192.29 0.88Q192.02 0.98 191.58 1.12 191.14 1.27 190.73 1.27L190.73 1.27Q190.39 1.27 190.13 1.1 189.88 0.93 189.88 0.51L189.88 0.51 191.97-23.68Q192.05-24.49 192.16-24.79 192.27-25.1 192.71-25.2L192.71-25.2Q194.93-25.63 197.3-26.09 199.67-26.54 201.89-27.25L201.89-27.25Q202.08-27.25 202.12-27.19 202.16-27.12 202.16-27L202.16-27Q202.16-26.95 202.14-26.86 202.13-26.76 202.07-26.42 202.01-26.07 201.9-25.38 201.79-24.68 201.59-23.44L201.59-23.44Q202.72-24.32 204.07-25.05 205.43-25.78 206.79-26.31 208.16-26.83 209.43-27.14 210.7-27.44 211.65-27.44L211.65-27.44ZM212.87-10.35L212.87-10.35Q213.19-13.7 213.51-16.97 213.82-20.24 214.07-23.68L214.07-23.68Q214.12-24.49 214.23-24.79 214.34-25.1 214.77-25.2L214.77-25.2Q216.85-25.61 219.12-26.06 221.39-26.51 223.52-27.22L223.52-27.22Q223.59-27.25 223.73-27.25L223.73-27.25Q224-27.25 224-27.05L224-27.05 221.81-3.27Q221.73-2.47 221.64-2.16 221.54-1.86 221.1-1.76L221.1-1.76Q219.02-1.12 216.9-0.34 214.77 0.44 212.41 1.25L212.41 1.25Q212.33 1.27 212.19 1.27L212.19 1.27Q211.92 1.27 211.92 1.03L211.92 1.03Q211.92 1 211.97 0.37 212.02-0.27 212.1-1.27 212.19-2.27 212.28-3.52 212.38-4.76 212.49-6.01 212.6-7.25 212.7-8.4 212.8-9.55 212.87-10.35ZM214.7-29.83L214.7-29.83Q214.77-30.88 214.81-31.45 214.85-32.01 214.87-32.29 214.9-32.57 214.9-32.64 214.9-32.71 214.91-32.75 214.92-32.79 214.93-32.9 214.95-33.01 214.97-33.36 214.99-33.72 215.04-34.4 215.09-35.08 215.19-36.28L215.19-36.28Q215.24-37.08 215.35-37.39 215.46-37.7 215.9-37.79L215.9-37.79Q217.97-38.21 220.24-38.66 222.51-39.11 224.64-39.82L224.64-39.82Q224.71-39.84 224.86-39.84L224.86-39.84Q224.93-39.7 225.05-39.65L225.05-39.65 225.13-39.6 224.59-32.91Q224.52-32.1 224.41-31.79 224.3-31.47 223.88-31.4L223.88-31.4Q221.81-31.01 219.68-30.54 217.56-30.08 215.19-29.61L215.19-29.61Q215.12-29.59 214.97-29.59L214.97-29.59Q214.7-29.59 214.7-29.83ZM226.69-11.91L226.69-11.91Q226.69-15.11 227.87-17.91 229.05-20.7 231.14-22.78 233.23-24.85 236.07-26.05 238.92-27.25 242.26-27.25L242.26-27.25Q244.53-27.25 246.14-26.88 247.76-26.51 248.78-26.06 249.81-25.61 250.28-25.23 250.76-24.85 250.76-24.83L250.76-24.83Q250.76-24.68 250.65-24.01 250.54-23.34 250.4-22.45 250.27-21.56 250.16-20.62 250.05-19.68 250.05-18.99L250.05-18.99Q250.05-18.87 249.98-18.73 249.9-18.58 249.59-18.58L249.59-18.58Q249.29-18.58 248.73-18.79 248.17-18.99 247.35-19.24 246.54-19.48 245.47-19.69 244.41-19.9 243.12-19.9L243.12-19.9Q241.51-19.9 240.21-19.32 238.92-18.75 237.99-17.74 237.06-16.72 236.56-15.33 236.06-13.94 236.06-12.33L236.06-12.33Q236.06-10.64 236.59-9.46 237.11-8.28 237.99-7.53 238.87-6.79 240.02-6.45 241.16-6.1 242.43-6.1L242.43-6.1Q243.9-6.1 245.39-6.51 246.88-6.91 248.2-7.64L248.2-7.64Q248.24-7.67 248.39-7.67L248.39-7.67Q248.51-7.67 248.57-7.54 248.63-7.42 248.63-7.08L248.63-7.08Q248.63-6.3 248.63-5.19 248.63-4.08 248.62-3.06 248.61-2.05 248.59-1.34 248.56-0.63 248.54-0.63L248.54-0.63Q247.66-0.05 246.63 0.32 245.61 0.68 244.52 0.9 243.43 1.12 242.34 1.2 241.24 1.27 240.21 1.27L240.21 1.27Q237.36 1.27 234.89 0.32 232.42-0.63 230.6-2.37 228.79-4.1 227.74-6.53 226.69-8.96 226.69-11.91ZM265.94 1.27L265.94 1.27Q262.5 1.27 259.9 0.15 257.3-0.98 255.54-2.84 253.78-4.71 252.9-7.14 252.03-9.57 252.03-12.18L252.03-12.18Q252.03-14.79 252.88-17.15 253.73-19.51 255.27-21.37 256.81-23.24 258.96-24.5 261.11-25.76 263.7-26.2L263.7-26.2Q264.09-26.22 264.09-26.37L264.09-26.37Q264.09-26.64 264.03-26.87 263.96-27.1 263.96-27.27L263.96-27.27Q263.96-27.54 264.06-27.64 264.16-27.73 264.28-27.73L264.28-27.73Q268.94-27.73 272.22-26.67 275.49-25.61 277.54-23.78 279.59-21.95 280.52-19.46 281.44-16.97 281.44-14.11L281.44-14.11Q281.44-10.47 280.22-7.62 279-4.76 276.89-2.78 274.78-0.81 271.96 0.23 269.14 1.27 265.94 1.27ZM261.43-12.45L261.43-12.45Q261.43-11.13 261.71-9.84 261.99-8.54 262.63-7.5 263.28-6.45 264.33-5.8 265.38-5.15 266.94-5.15L266.94-5.15Q268.07-5.2 268.91-5.65 269.75-6.1 270.36-6.82 270.97-7.54 271.37-8.45 271.78-9.35 272.01-10.31 272.24-11.28 272.34-12.21 272.44-13.13 272.44-13.89L272.44-13.89Q272.44-15.16 272.06-16.38 271.68-17.6 270.95-18.53 270.21-19.46 269.13-20.03 268.04-20.61 266.63-20.61L266.63-20.61Q265.16-20.61 264.16-19.74 263.16-18.87 262.56-17.6 261.96-16.33 261.69-14.93 261.43-13.53 261.43-12.45ZM286.25-20.65L286.25-20.65Q286.54-24 286.73-27.27 286.91-30.54 287.13-33.98L287.13-33.98Q287.18-34.79 287.29-35.1 287.4-35.4 287.84-35.5L287.84-35.5Q290.11-35.91 292.39-36.34 294.67-36.77 296.97-37.48L296.97-37.48Q297.04-37.5 297.19-37.5L297.19-37.5Q297.46-37.5 297.46-37.26L297.46-37.26 294.28-2.39 294.28-1.98Q294.28-1.76 294.11-1.62 293.94-1.49 293.31-1.32L293.31-1.32 286.91 1.03Q286.64 1.15 286.2 1.28 285.76 1.42 285.35 1.42L285.35 1.42Q285.01 1.42 284.75 1.25 284.49 1.07 284.49 0.66L284.49 0.66 284.49 0.51Q284.69-1.95 284.87-4.31 285.06-6.67 285.26-9.18 285.47-11.69 285.71-14.5 285.96-17.31 286.25-20.65ZM314.3-27.25L314.3-27.25Q316.62-27.25 318.51-26.38 320.4-25.51 321.76-24.13 323.11-22.75 323.85-21.04 324.58-19.34 324.58-17.63L324.58-17.63Q324.58-16.11 323.65-14.59 322.72-13.06 321.05-11.84 319.38-10.62 317.04-9.86 314.69-9.11 311.88-9.11L311.88-9.11Q310.42-9.11 308.81-9.4L308.81-9.4Q308.91-8.35 309.42-7.59 309.93-6.84 310.71-6.35 311.49-5.86 312.48-5.63 313.47-5.4 314.52-5.4L314.52-5.4Q315.69-5.4 316.78-5.6 317.87-5.81 318.87-6.15 319.87-6.49 320.8-6.91 321.72-7.32 322.55-7.74L322.55-7.74Q322.77-7.79 322.93-7.82 323.09-7.86 323.24-7.86L323.24-7.86Q323.24-7.86 323.22-7.47 323.21-7.08 323.21-6.37 323.21-5.66 323.2-4.66 323.19-3.66 323.16-2.44L323.16-2.44Q323.24-2.32 323.26-2.2 323.29-2.08 323.29-2L323.29-2Q323.29-1.71 322.75-1.37 322.21-1.03 321.34-0.66 320.48-0.29 319.37 0.05 318.26 0.39 317.11 0.67 315.96 0.95 314.89 1.11 313.81 1.27 313.01 1.27L313.01 1.27Q310.37 1.27 307.89 0.35 305.41-0.56 303.5-2.27 301.58-3.98 300.43-6.42 299.29-8.86 299.29-11.91L299.29-11.91Q299.29-15.11 300.39-17.91 301.48-20.7 303.47-22.78 305.46-24.85 308.22-26.05 310.98-27.25 314.3-27.25ZM314.01-20.75L314.01-20.75Q313.01-20.75 312.16-20.32 311.32-19.9 310.63-19.1 309.93-18.31 309.42-17.2 308.91-16.09 308.59-14.75L308.59-14.75Q311.1-15.19 312.76-15.67 314.42-16.16 315.42-16.66 316.43-17.16 316.84-17.66 317.26-18.16 317.26-18.63L317.26-18.63Q317.26-19.07 316.93-19.46 316.6-19.85 316.11-20.14 315.62-20.43 315.05-20.59 314.47-20.75 314.01-20.75Z" opacity="1" transform="matrix(1,0,0,1,0,0)" fill="#d50000" class="wordmark-text-0" data-fill-palette-color="primary" id="text-0"></path></svg></g></svg></g></svg></g></svg></g><g transform="matrix(1,0,0,1,72.26446336640471,0)"><svg viewBox="0 0 47.471073267190576 68.9564129690346" height="68.9564129690346" width="47.471073267190576"><g><svg xmlns="http://www.w3.org/2000/svg" xmlns:xlink="http://www.w3.org/1999/xlink" version="1.1" x="0" y="0" viewBox="20.099000000000004 7.473 55.80000000000001 81.05499999999999" enable-background="new 0 0 96 96" xml:space="preserve" height="68.9564129690346" width="47.471073267190576" class="icon-icon-0" data-fill-palette-color="accent" id="icon-0"><g fill="#d50000" data-fill-palette-color="accent"><polygon points="20.102,12.921 20.102,23.822 30.354,18.372  " fill="#d50000" data-fill-palette-color="accent"></polygon><path d="M69.979 57.469c-0.52-3.671-1.973-7.184-4.202-10.158l-0.39-0.521 4.116-4.117-3.552-3.552-3.64 3.642-5.288 6.39c3.398 2.679 5.591 6.82 5.591 11.473 0 5.276-2.873 10.1-7.346 12.674l2.822 0.452-0.236 1.48-6.037-0.967 1.649-6.395 1.453 0.375L53.86 72.35c4.391-2.199 7.255-6.735 7.255-11.725 0-4.188-1.981-7.915-5.047-10.317L41.583 67.812l9.021-20.039c-0.842-0.171-1.713-0.262-2.604-0.262-7.231 0-13.114 5.883-13.114 13.114 0 7.232 5.883 13.116 13.114 13.116v1.5c-8.059 0-14.614-6.557-14.614-14.616 0-8.059 6.556-14.614 14.614-14.614 1.111 0 2.189 0.136 3.229 0.372l3.158-7.016c-1.057-0.317-2.137-0.565-3.233-0.722l-0.645-0.091v-3.765l-5.019 0.259v3.506l-0.645 0.091c-3.677 0.521-7.19 1.976-10.163 4.205l-0.521 0.391-4.114-4.12-3.552 3.552 4.12 4.117-0.391 0.521c-2.23 2.972-3.687 6.484-4.21 10.159l-0.092 0.645h-5.823v5.021h5.823l0.092 0.645c0.523 3.673 1.979 7.186 4.21 10.158l0.391 0.521-4.12 4.12 3.552 3.55 4.113-4.118 0.521 0.39c2.977 2.231 6.491 3.686 10.163 4.206l0.645 0.091v5.829h5.019v-5.829l0.645-0.091c3.675-0.521 7.188-1.976 10.158-4.205l0.521-0.391 4.119 4.119 3.552-3.551-4.116-4.118 0.391-0.521c2.229-2.973 3.682-6.486 4.201-10.16l0.091-0.645h5.829v-5.021H70.07L69.979 57.469z" fill="#d50000" data-fill-palette-color="accent"></path><polygon points="45.491,33.547 50.51,33.289 52.01,33.211 58.967,32.852 56.434,38.478 55.816,39.85 52.688,46.796 52.072,48.167    47.513,58.293 54.83,49.452 55.796,48.286 60.668,42.398 61.633,41.231 71.311,29.538 54.825,23.474 56.657,7.473 40.114,33.825    43.991,33.625  " fill="#d50000" data-fill-palette-color="accent"></polygon><polygon points="28.165,24.408 28.868,25.732 42.715,18.372 28.868,11.011 28.165,12.335 39.52,18.372  " fill="#d50000" data-fill-palette-color="accent"></polygon></g></svg></g></svg></g><g></g></svg></g></svg></g></svg></g><defs></defs></svg><rect width="320" height="360" fill="none" stroke="none" visibility="hidden"></rect></g></svg></g></svg>